<svg xmlns="http://www.w3.org/2000/svg" viewBox="0 0 1200 400" width="1200" height="400">
  <rect width="1200" height="400" fill="#0a1f44"/>
  <rect width="1200" height="400" fill="#0c2450" opacity="0.5"/>
  <line x1="0" y1="20" x2="1200" y2="20" stroke="rgba(255,255,255,0.05425676312763244)" stroke-width="1"/><line x1="0" y1="38" x2="1200" y2="38" stroke="rgba(255,255,255,0.0589069917309098)" stroke-width="1"/><line x1="0" y1="56" x2="1200" y2="56" stroke="rgba(255,255,255,0.03140717696165666)" stroke-width="1"/><line x1="0" y1="74" x2="1200" y2="74" stroke="rgba(255,255,255,0.043257362691219894)" stroke-width="1"/><line x1="0" y1="92" x2="1200" y2="92" stroke="rgba(255,255,255,0.05889959070598706)" stroke-width="1"/><line x1="0" y1="110" x2="1200" y2="110" stroke="rgba(255,255,255,0.032599903712980445)" stroke-width="1"/><line x1="0" y1="128" x2="1200" y2="128" stroke="rgba(255,255,255,0.050453072986565525)" stroke-width="1"/><line x1="0" y1="146" x2="1200" y2="146" stroke="rgba(255,255,255,0.037096393941901624)" stroke-width="1"/><line x1="0" y1="164" x2="1200" y2="164" stroke="rgba(255,255,255,0.039191842179279776)" stroke-width="1"/><line x1="0" y1="182" x2="1200" y2="182" stroke="rgba(255,255,255,0.04001577061833814)" stroke-width="1"/><line x1="0" y1="200" x2="1200" y2="200" stroke="rgba(255,255,255,0.03176369121763855)" stroke-width="1"/><line x1="0" y1="218" x2="1200" y2="218" stroke="rgba(255,255,255,0.04498807422118262)" stroke-width="1"/><line x1="0" y1="236" x2="1200" y2="236" stroke="rgba(255,255,255,0.053202915270812806)" stroke-width="1"/><line x1="0" y1="254" x2="1200" y2="254" stroke="rgba(255,255,255,0.04625520683359355)" stroke-width="1"/><line x1="0" y1="272" x2="1200" y2="272" stroke="rgba(255,255,255,0.035632288414053616)" stroke-width="1"/><line x1="0" y1="290" x2="1200" y2="290" stroke="rgba(255,255,255,0.032249312486965206)" stroke-width="1"/><line x1="0" y1="308" x2="1200" y2="308" stroke="rgba(255,255,255,0.03838250387459993)" stroke-width="1"/><line x1="0" y1="326" x2="1200" y2="326" stroke="rgba(255,255,255,0.030923621943220497)" stroke-width="1"/><line x1="0" y1="344" x2="1200" y2="344" stroke="rgba(255,255,255,0.047106748754158614)" stroke-width="1"/><line x1="0" y1="362" x2="1200" y2="362" stroke="rgba(255,255,255,0.03200122169684619)" stroke-width="1"/><line x1="0" y1="380" x2="1200" y2="380" stroke="rgba(255,255,255,0.030910074510611594)" stroke-width="1"/><line x1="0" y1="398" x2="1200" y2="398" stroke="rgba(255,255,255,0.05319583440665156)" stroke-width="1"/><rect x="673.3402860537171" y="122.99412940163165" width="119.41463850438595" height="106.21640487574041" fill="none" stroke="rgba(120,170,255,0.34420438269153236)" stroke-width="1.5"/><rect x="748.0128632578999" y="62.932865736074746" width="200.90121392160654" height="127.35882327891886" fill="none" stroke="rgba(120,170,255,0.48571373689919706)" stroke-width="1.5"/><rect x="440.215007327497" y="188.60519937239587" width="179.59451455622911" height="62.77958882972598" fill="none" stroke="rgba(120,170,255,0.28162909478414805)" stroke-width="1.5"/><rect x="852.5580271799117" y="307.3792476532981" width="63.35240509361029" height="119.86050197854638" fill="none" stroke="rgba(120,170,255,0.4791034005116671)" stroke-width="1.5"/><rect x="375.126584591344" y="179.40021459013224" width="84.3625957891345" height="71.68530476279557" fill="none" stroke="rgba(120,170,255,0.32001235235948117)" stroke-width="1.5"/><rect x="787.5072226580232" y="272.0642280112952" width="168.99818055331707" height="57.66927802935243" fill="none" stroke="rgba(120,170,255,0.4024630559841171)" stroke-width="1.5"/>
  <text x="60" y="360" fill="rgba(255,255,255,0.12)" font-family="monospace" font-size="120" font-weight="700">APARTMENTS</text>
</svg>