<svg xmlns="http://www.w3.org/2000/svg" viewBox="0 0 1200 400" width="1200" height="400">
  <rect width="1200" height="400" fill="#0a1f44"/>
  <rect width="1200" height="400" fill="#0c2450" opacity="0.5"/>
  <line x1="0" y1="20" x2="1200" y2="20" stroke="rgba(255,255,255,0.030314809202682227)" stroke-width="1"/><line x1="0" y1="38" x2="1200" y2="38" stroke="rgba(255,255,255,0.04166317765368149)" stroke-width="1"/><line x1="0" y1="56" x2="1200" y2="56" stroke="rgba(255,255,255,0.05306020797695964)" stroke-width="1"/><line x1="0" y1="74" x2="1200" y2="74" stroke="rgba(255,255,255,0.05590716834878549)" stroke-width="1"/><line x1="0" y1="92" x2="1200" y2="92" stroke="rgba(255,255,255,0.05617862418992445)" stroke-width="1"/><line x1="0" y1="110" x2="1200" y2="110" stroke="rgba(255,255,255,0.045613631077576426)" stroke-width="1"/><line x1="0" y1="128" x2="1200" y2="128" stroke="rgba(255,255,255,0.03394316762918606)" stroke-width="1"/><line x1="0" y1="146" x2="1200" y2="146" stroke="rgba(255,255,255,0.03537242911057546)" stroke-width="1"/><line x1="0" y1="164" x2="1200" y2="164" stroke="rgba(255,255,255,0.058296129887457936)" stroke-width="1"/><line x1="0" y1="182" x2="1200" y2="182" stroke="rgba(255,255,255,0.04573654342442751)" stroke-width="1"/><line x1="0" y1="200" x2="1200" y2="200" stroke="rgba(255,255,255,0.040519114402122795)" stroke-width="1"/><line x1="0" y1="218" x2="1200" y2="218" stroke="rgba(255,255,255,0.04661334129748866)" stroke-width="1"/><line x1="0" y1="236" x2="1200" y2="236" stroke="rgba(255,255,255,0.03321551379282028)" stroke-width="1"/><line x1="0" y1="254" x2="1200" y2="254" stroke="rgba(255,255,255,0.04640612735180184)" stroke-width="1"/><line x1="0" y1="272" x2="1200" y2="272" stroke="rgba(255,255,255,0.04977939806878567)" stroke-width="1"/><line x1="0" y1="290" x2="1200" y2="290" stroke="rgba(255,255,255,0.053654072773642834)" stroke-width="1"/><line x1="0" y1="308" x2="1200" y2="308" stroke="rgba(255,255,255,0.04786472432082518)" stroke-width="1"/><line x1="0" y1="326" x2="1200" y2="326" stroke="rgba(255,255,255,0.0453394699213095)" stroke-width="1"/><line x1="0" y1="344" x2="1200" y2="344" stroke="rgba(255,255,255,0.041978814213071015)" stroke-width="1"/><line x1="0" y1="362" x2="1200" y2="362" stroke="rgba(255,255,255,0.03794125693850219)" stroke-width="1"/><line x1="0" y1="380" x2="1200" y2="380" stroke="rgba(255,255,255,0.03667449735570699)" stroke-width="1"/><line x1="0" y1="398" x2="1200" y2="398" stroke="rgba(255,255,255,0.04430206617107615)" stroke-width="1"/><rect x="851.5687779709697" y="241.72453936189413" width="94.86635498702526" height="108.77430414780974" fill="none" stroke="rgba(120,170,255,0.3427478947211057)" stroke-width="1.5"/><rect x="919.8583510424942" y="151.22403752524406" width="184.53097332268953" height="70.08202482946217" fill="none" stroke="rgba(120,170,255,0.3098842569394037)" stroke-width="1.5"/><rect x="273.88257525861263" y="234.0489549934864" width="89.75656542927027" height="129.9686473235488" fill="none" stroke="rgba(120,170,255,0.3421474763657898)" stroke-width="1.5"/><rect x="230.73505230247974" y="305.1224611606449" width="77.53217924386263" height="55.324902180582285" fill="none" stroke="rgba(120,170,255,0.3877290119417012)" stroke-width="1.5"/><rect x="349.3094408605248" y="203.63055899273604" width="176.18260849267244" height="158.99540691636503" fill="none" stroke="rgba(120,170,255,0.3320719880750403)" stroke-width="1.5"/><rect x="455.0406017061323" y="119.05649070627987" width="158.75954665243626" height="52.51856667920947" fill="none" stroke="rgba(120,170,255,0.4223163756774738)" stroke-width="1.5"/>
  <text x="60" y="360" fill="rgba(255,255,255,0.12)" font-family="monospace" font-size="120" font-weight="700">COMMERCIAL</text>
</svg>