<svg xmlns="http://www.w3.org/2000/svg" viewBox="0 0 1200 400" width="1200" height="400">
  <rect width="1200" height="400" fill="#0a1f44"/>
  <rect width="1200" height="400" fill="#0c2450" opacity="0.5"/>
  <line x1="0" y1="20" x2="1200" y2="20" stroke="rgba(255,255,255,0.048464910029433664)" stroke-width="1"/><line x1="0" y1="38" x2="1200" y2="38" stroke="rgba(255,255,255,0.031062103214208034)" stroke-width="1"/><line x1="0" y1="56" x2="1200" y2="56" stroke="rgba(255,255,255,0.04046175398631021)" stroke-width="1"/><line x1="0" y1="74" x2="1200" y2="74" stroke="rgba(255,255,255,0.05974906787741929)" stroke-width="1"/><line x1="0" y1="92" x2="1200" y2="92" stroke="rgba(255,255,255,0.04038805854739621)" stroke-width="1"/><line x1="0" y1="110" x2="1200" y2="110" stroke="rgba(255,255,255,0.05194885635282844)" stroke-width="1"/><line x1="0" y1="128" x2="1200" y2="128" stroke="rgba(255,255,255,0.037389524462632835)" stroke-width="1"/><line x1="0" y1="146" x2="1200" y2="146" stroke="rgba(255,255,255,0.05153425230877474)" stroke-width="1"/><line x1="0" y1="164" x2="1200" y2="164" stroke="rgba(255,255,255,0.04105351120932028)" stroke-width="1"/><line x1="0" y1="182" x2="1200" y2="182" stroke="rgba(255,255,255,0.04697898628888651)" stroke-width="1"/><line x1="0" y1="200" x2="1200" y2="200" stroke="rgba(255,255,255,0.04726797350216656)" stroke-width="1"/><line x1="0" y1="218" x2="1200" y2="218" stroke="rgba(255,255,255,0.03274783189175651)" stroke-width="1"/><line x1="0" y1="236" x2="1200" y2="236" stroke="rgba(255,255,255,0.03753829698543996)" stroke-width="1"/><line x1="0" y1="254" x2="1200" y2="254" stroke="rgba(255,255,255,0.053125703106634316)" stroke-width="1"/><line x1="0" y1="272" x2="1200" y2="272" stroke="rgba(255,255,255,0.03235261621652171)" stroke-width="1"/><line x1="0" y1="290" x2="1200" y2="290" stroke="rgba(255,255,255,0.054962919980753214)" stroke-width="1"/><line x1="0" y1="308" x2="1200" y2="308" stroke="rgba(255,255,255,0.030449108756147324)" stroke-width="1"/><line x1="0" y1="326" x2="1200" y2="326" stroke="rgba(255,255,255,0.036533118551597)" stroke-width="1"/><line x1="0" y1="344" x2="1200" y2="344" stroke="rgba(255,255,255,0.0324386811372824)" stroke-width="1"/><line x1="0" y1="362" x2="1200" y2="362" stroke="rgba(255,255,255,0.05199481587158516)" stroke-width="1"/><line x1="0" y1="380" x2="1200" y2="380" stroke="rgba(255,255,255,0.035931961904279885)" stroke-width="1"/><line x1="0" y1="398" x2="1200" y2="398" stroke="rgba(255,255,255,0.03582005837699398)" stroke-width="1"/><rect x="199.20768162235618" y="131.8309492012486" width="195.51929611712694" height="57.25160639733076" fill="none" stroke="rgba(120,170,255,0.3983944374369457)" stroke-width="1.5"/><rect x="149.51298820786178" y="84.3345831008628" width="93.81088871508837" height="94.57757352851331" fill="none" stroke="rgba(120,170,255,0.3560562730766833)" stroke-width="1.5"/><rect x="496.0119974985719" y="291.14750421140343" width="194.47526674717665" height="55.973641788586974" fill="none" stroke="rgba(120,170,255,0.5156550177838652)" stroke-width="1.5"/><rect x="1025.0780742336065" y="183.69809368625283" width="199.763851352036" height="53.15625815652311" fill="none" stroke="rgba(120,170,255,0.5077038710936903)" stroke-width="1.5"/><rect x="716.5488672163337" y="89.29237137548625" width="86.85820996761322" height="119.70201100222766" fill="none" stroke="rgba(120,170,255,0.4186558955349028)" stroke-width="1.5"/><rect x="830.696423696354" y="134.81651585549116" width="92.81587544828653" height="149.64919229969382" fill="none" stroke="rgba(120,170,255,0.31902183380443605)" stroke-width="1.5"/>
  <text x="60" y="360" fill="rgba(255,255,255,0.12)" font-family="monospace" font-size="120" font-weight="700">FRANCHISE</text>
</svg>