<svg xmlns="http://www.w3.org/2000/svg" viewBox="0 0 1200 400" width="1200" height="400">
  <rect width="1200" height="400" fill="#0a1f44"/>
  <rect width="1200" height="400" fill="#0c2450" opacity="0.5"/>
  <line x1="0" y1="20" x2="1200" y2="20" stroke="rgba(255,255,255,0.04575152175268158)" stroke-width="1"/><line x1="0" y1="38" x2="1200" y2="38" stroke="rgba(255,255,255,0.05032660126453266)" stroke-width="1"/><line x1="0" y1="56" x2="1200" y2="56" stroke="rgba(255,255,255,0.038964276197366414)" stroke-width="1"/><line x1="0" y1="74" x2="1200" y2="74" stroke="rgba(255,255,255,0.044822265165857966)" stroke-width="1"/><line x1="0" y1="92" x2="1200" y2="92" stroke="rgba(255,255,255,0.03907282041851431)" stroke-width="1"/><line x1="0" y1="110" x2="1200" y2="110" stroke="rgba(255,255,255,0.040049500060267744)" stroke-width="1"/><line x1="0" y1="128" x2="1200" y2="128" stroke="rgba(255,255,255,0.0415806210343726)" stroke-width="1"/><line x1="0" y1="146" x2="1200" y2="146" stroke="rgba(255,255,255,0.050421272940002385)" stroke-width="1"/><line x1="0" y1="164" x2="1200" y2="164" stroke="rgba(255,255,255,0.04185061861993745)" stroke-width="1"/><line x1="0" y1="182" x2="1200" y2="182" stroke="rgba(255,255,255,0.04013027764856815)" stroke-width="1"/><line x1="0" y1="200" x2="1200" y2="200" stroke="rgba(255,255,255,0.042161607427988204)" stroke-width="1"/><line x1="0" y1="218" x2="1200" y2="218" stroke="rgba(255,255,255,0.059196008134167644)" stroke-width="1"/><line x1="0" y1="236" x2="1200" y2="236" stroke="rgba(255,255,255,0.059950106421019875)" stroke-width="1"/><line x1="0" y1="254" x2="1200" y2="254" stroke="rgba(255,255,255,0.03407041441183537)" stroke-width="1"/><line x1="0" y1="272" x2="1200" y2="272" stroke="rgba(255,255,255,0.05937179472763091)" stroke-width="1"/><line x1="0" y1="290" x2="1200" y2="290" stroke="rgba(255,255,255,0.05099962469888851)" stroke-width="1"/><line x1="0" y1="308" x2="1200" y2="308" stroke="rgba(255,255,255,0.05752229026285931)" stroke-width="1"/><line x1="0" y1="326" x2="1200" y2="326" stroke="rgba(255,255,255,0.050757729497272516)" stroke-width="1"/><line x1="0" y1="344" x2="1200" y2="344" stroke="rgba(255,255,255,0.05104752621380612)" stroke-width="1"/><line x1="0" y1="362" x2="1200" y2="362" stroke="rgba(255,255,255,0.043292704371269794)" stroke-width="1"/><line x1="0" y1="380" x2="1200" y2="380" stroke="rgba(255,255,255,0.05514878663001582)" stroke-width="1"/><line x1="0" y1="398" x2="1200" y2="398" stroke="rgba(255,255,255,0.031171454528812318)" stroke-width="1"/><rect x="825.5261663999408" y="292.11651348974556" width="171.86874497681856" height="52.69436941482127" fill="none" stroke="rgba(120,170,255,0.33540583271533253)" stroke-width="1.5"/><rect x="967.2088007628918" y="185.44520722702146" width="97.02764794230461" height="71.52987390756607" fill="none" stroke="rgba(120,170,255,0.27582547578495)" stroke-width="1.5"/><rect x="1019.1674262005836" y="204.38468731939793" width="155.69602597504854" height="129.57533489912748" fill="none" stroke="rgba(120,170,255,0.3251878280425444)" stroke-width="1.5"/><rect x="519.4053192809224" y="246.35246981400996" width="116.47196143865585" height="158.82273303344846" fill="none" stroke="rgba(120,170,255,0.27757327002473176)" stroke-width="1.5"/><rect x="180.39486922323704" y="99.28625337779522" width="146.6940337792039" height="117.99641440622509" fill="none" stroke="rgba(120,170,255,0.46078717838972805)" stroke-width="1.5"/><rect x="1026.0573724936694" y="294.47842068970203" width="141.00835252553225" height="137.13518590666354" fill="none" stroke="rgba(120,170,255,0.3180471805855632)" stroke-width="1.5"/>
  <text x="60" y="360" fill="rgba(255,255,255,0.12)" font-family="monospace" font-size="120" font-weight="700">HEALTHCARE</text>
</svg>