<svg xmlns="http://www.w3.org/2000/svg" viewBox="0 0 1200 400" width="1200" height="400">
  <rect width="1200" height="400" fill="#0a1f44"/>
  <rect width="1200" height="400" fill="#0c2450" opacity="0.5"/>
  <line x1="0" y1="20" x2="1200" y2="20" stroke="rgba(255,255,255,0.05582696464145556)" stroke-width="1"/><line x1="0" y1="38" x2="1200" y2="38" stroke="rgba(255,255,255,0.03842092389240861)" stroke-width="1"/><line x1="0" y1="56" x2="1200" y2="56" stroke="rgba(255,255,255,0.03208550171228126)" stroke-width="1"/><line x1="0" y1="74" x2="1200" y2="74" stroke="rgba(255,255,255,0.036593211551662536)" stroke-width="1"/><line x1="0" y1="92" x2="1200" y2="92" stroke="rgba(255,255,255,0.03399947969941422)" stroke-width="1"/><line x1="0" y1="110" x2="1200" y2="110" stroke="rgba(255,255,255,0.0470464917132631)" stroke-width="1"/><line x1="0" y1="128" x2="1200" y2="128" stroke="rgba(255,255,255,0.03516728930873796)" stroke-width="1"/><line x1="0" y1="146" x2="1200" y2="146" stroke="rgba(255,255,255,0.058630409720353785)" stroke-width="1"/><line x1="0" y1="164" x2="1200" y2="164" stroke="rgba(255,255,255,0.053263075444847346)" stroke-width="1"/><line x1="0" y1="182" x2="1200" y2="182" stroke="rgba(255,255,255,0.05301496161846444)" stroke-width="1"/><line x1="0" y1="200" x2="1200" y2="200" stroke="rgba(255,255,255,0.057699492643587286)" stroke-width="1"/><line x1="0" y1="218" x2="1200" y2="218" stroke="rgba(255,255,255,0.03214472717838362)" stroke-width="1"/><line x1="0" y1="236" x2="1200" y2="236" stroke="rgba(255,255,255,0.044983987268060445)" stroke-width="1"/><line x1="0" y1="254" x2="1200" y2="254" stroke="rgba(255,255,255,0.05336274610832333)" stroke-width="1"/><line x1="0" y1="272" x2="1200" y2="272" stroke="rgba(255,255,255,0.03439812245545909)" stroke-width="1"/><line x1="0" y1="290" x2="1200" y2="290" stroke="rgba(255,255,255,0.0465549536794424)" stroke-width="1"/><line x1="0" y1="308" x2="1200" y2="308" stroke="rgba(255,255,255,0.043725683942902834)" stroke-width="1"/><line x1="0" y1="326" x2="1200" y2="326" stroke="rgba(255,255,255,0.04293676367495209)" stroke-width="1"/><line x1="0" y1="344" x2="1200" y2="344" stroke="rgba(255,255,255,0.040753477660473436)" stroke-width="1"/><line x1="0" y1="362" x2="1200" y2="362" stroke="rgba(255,255,255,0.05925532562658191)" stroke-width="1"/><line x1="0" y1="380" x2="1200" y2="380" stroke="rgba(255,255,255,0.04850304715801031)" stroke-width="1"/><line x1="0" y1="398" x2="1200" y2="398" stroke="rgba(255,255,255,0.041358712920919055)" stroke-width="1"/><rect x="705.1625772565603" y="146.2023464543745" width="148.08199409395456" height="101.8973844870925" fill="none" stroke="rgba(120,170,255,0.5009840980637819)" stroke-width="1.5"/><rect x="504.311121692881" y="296.106799650006" width="95.8342169970274" height="111.79800011217594" fill="none" stroke="rgba(120,170,255,0.48930262231733646)" stroke-width="1.5"/><rect x="334.39739413559437" y="109.51109583489597" width="217.00393430888653" height="117.55428331904113" fill="none" stroke="rgba(120,170,255,0.3399958189111203)" stroke-width="1.5"/><rect x="387.01329139992595" y="314.0686805918813" width="130.50601299852133" height="156.17862798273563" fill="none" stroke="rgba(120,170,255,0.3626321800984442)" stroke-width="1.5"/><rect x="618.1189095787704" y="278.1409730948508" width="152.71950867027044" height="82.34467538073659" fill="none" stroke="rgba(120,170,255,0.2891693282406777)" stroke-width="1.5"/><rect x="573.137024808675" y="138.36168964393437" width="147.0026759430766" height="138.46580560319126" fill="none" stroke="rgba(120,170,255,0.2789015715243295)" stroke-width="1.5"/>
  <text x="60" y="360" fill="rgba(255,255,255,0.12)" font-family="monospace" font-size="120" font-weight="700">RESIDENTIAL</text>
</svg>