<svg xmlns="http://www.w3.org/2000/svg" viewBox="0 0 1200 630" width="1200" height="630">
  <defs>
    <linearGradient id="bg" x1="0" y1="0" x2="1" y2="1"><stop offset="0" stop-color="#0a1f44"/><stop offset="1" stop-color="#081936"/></linearGradient>
    <pattern id="g2" width="30" height="30" patternUnits="userSpaceOnUse"><path d="M30 0H0V30" fill="none" stroke="rgba(255,255,255,0.05)" stroke-width="1"/></pattern>
  </defs>
  <rect width="1200" height="630" fill="url(#bg)"/>
  <rect width="1200" height="630" fill="url(#g2)"/>
  <g transform="translate(300,120) scale(1.4)" opacity="0.5"><rect x="70" y="157.9377014003694" width="440" height="26" fill="none" stroke="#38bdf8" stroke-width="2"/><rect x="120" y="183.9377014003694" width="16" height="111.63969512097538" fill="none" stroke="#38bdf8" stroke-width="1.4"/><rect x="112" y="273.4656625650823" width="32" height="14" fill="none" stroke="#38bdf8" stroke-width="1.4"/><rect x="202" y="183.9377014003694" width="16" height="71.98041593190283" fill="none" stroke="#38bdf8" stroke-width="1.4"/><rect x="194" y="265.29044576827437" width="32" height="14" fill="none" stroke="#38bdf8" stroke-width="1.4"/><rect x="284" y="183.9377014003694" width="16" height="108.95858947187662" fill="none" stroke="#38bdf8" stroke-width="1.4"/><rect x="276" y="300.03759425505996" width="32" height="14" fill="none" stroke="#38bdf8" stroke-width="1.4"/><rect x="366" y="183.9377014003694" width="16" height="88.91240035649389" fill="none" stroke="#38bdf8" stroke-width="1.4"/><rect x="358" y="250.83624065760523" width="32" height="14" fill="none" stroke="#38bdf8" stroke-width="1.4"/><rect x="448" y="183.9377014003694" width="16" height="72.99243194516748" fill="none" stroke="#38bdf8" stroke-width="1.4"/><rect x="440" y="274.7898949161172" width="32" height="14" fill="none" stroke="#38bdf8" stroke-width="1.4"/><rect x="380" y="87.9377014003694" width="80" height="52" fill="none" stroke="#38bdf8" stroke-width="2"/><line x1="380" y1="113.9377014003694" x2="460" y2="113.9377014003694" stroke="#38bdf8" stroke-width="1.2"/></g>
  <text x="70" y="120" fill="#38bdf8" font-family="monospace" font-size="22" letter-spacing="3">HVAC PLUMBING</text>
</svg>