<svg xmlns="http://www.w3.org/2000/svg" viewBox="0 0 600 400" width="600" height="400" role="img" aria-label="Backyard ADU — HVAC Load &amp; Layout — hvac drawing">
  <defs>
    <linearGradient id="bp" x1="0" y1="0" x2="1" y2="1">
      <stop offset="0" stop-color="#0a1f44"/>
      <stop offset="1" stop-color="#0c2450"/>
    </linearGradient>
    <pattern id="grid" width="24" height="24" patternUnits="userSpaceOnUse">
      <path d="M24 0H0V24" fill="none" stroke="rgba(255,255,255,0.06)" stroke-width="1"/>
    </pattern>
  </defs>
  <rect width="600" height="400" fill="url(#bp)"/>
  <rect width="600" height="400" fill="url(#grid)"/>
  <rect x="16" y="16" width="568" height="368" fill="none" stroke="rgba(255,255,255,0.35)" stroke-width="1.5"/>
  <rect x="24" y="24" width="552" height="352" fill="none" stroke="rgba(255,255,255,0.18)" stroke-width="1"/>
  <g opacity="0.92"><rect x="70" y="149.71702215261757" width="440" height="26" fill="none" stroke="#38bdf8" stroke-width="2"/><rect x="120" y="175.71702215261757" width="16" height="100.67356298211962" fill="none" stroke="#38bdf8" stroke-width="1.4"/><rect x="112" y="275.09926030319184" width="32" height="14" fill="none" stroke="#38bdf8" stroke-width="1.4"/><rect x="202" y="175.71702215261757" width="16" height="67.65928897541016" fill="none" stroke="#38bdf8" stroke-width="1.4"/><rect x="194" y="278.77633435092866" width="32" height="14" fill="none" stroke="#38bdf8" stroke-width="1.4"/><rect x="284" y="175.71702215261757" width="16" height="66.88295690808445" fill="none" stroke="#38bdf8" stroke-width="1.4"/><rect x="276" y="249.52568528149277" width="32" height="14" fill="none" stroke="#38bdf8" stroke-width="1.4"/><rect x="366" y="175.71702215261757" width="16" height="114.01515468489379" fill="none" stroke="#38bdf8" stroke-width="1.4"/><rect x="358" y="274.1521859485656" width="32" height="14" fill="none" stroke="#38bdf8" stroke-width="1.4"/><rect x="448" y="175.71702215261757" width="16" height="91.57912576105446" fill="none" stroke="#38bdf8" stroke-width="1.4"/><rect x="440" y="236.59087704867125" width="32" height="14" fill="none" stroke="#38bdf8" stroke-width="1.4"/><rect x="380" y="79.71702215261757" width="80" height="52" fill="none" stroke="#38bdf8" stroke-width="2"/><line x1="380" y1="105.71702215261757" x2="460" y2="105.71702215261757" stroke="#38bdf8" stroke-width="1.2"/></g>
  <!-- title block -->
  <g>
    <rect x="360" y="330" width="216" height="46" fill="rgba(0,0,0,0.35)" stroke="rgba(255,255,255,0.35)" stroke-width="1"/>
    <line x1="360" y1="352" x2="576" y2="352" stroke="rgba(255,255,255,0.25)" stroke-width="0.8"/>
    <line x1="480" y1="330" x2="480" y2="376" stroke="rgba(255,255,255,0.25)" stroke-width="0.8"/>
    <text x="368" y="345" fill="#e6edf7" font-family="monospace" font-size="10" letter-spacing="1">DRAFTING STUDIO</text>
    <text x="368" y="368" fill="#38bdf8" font-family="monospace" font-size="11">M-101</text>
    <text x="488" y="345" fill="#aebfda" font-family="monospace" font-size="8">SCALE 1/8"=1'</text>
    <text x="488" y="368" fill="#aebfda" font-family="monospace" font-size="8">2D / AutoCAD</text>
  </g>
  <text x="32" y="46" fill="#dbe6f5" font-family="monospace" font-size="13" letter-spacing="0.5">BACKYARD ADU — HVAC LOAD &amp; LAYOUT — HVAC</text>
</svg>