<svg xmlns="http://www.w3.org/2000/svg" viewBox="0 0 600 400" width="600" height="400" role="img" aria-label="Coworking Floor — Power &amp; Data drawing">
  <defs>
    <linearGradient id="bp" x1="0" y1="0" x2="1" y2="1">
      <stop offset="0" stop-color="#0a1f44"/>
      <stop offset="1" stop-color="#0c2450"/>
    </linearGradient>
    <pattern id="grid" width="24" height="24" patternUnits="userSpaceOnUse">
      <path d="M24 0H0V24" fill="none" stroke="rgba(255,255,255,0.06)" stroke-width="1"/>
    </pattern>
  </defs>
  <rect width="600" height="400" fill="url(#bp)"/>
  <rect width="600" height="400" fill="url(#grid)"/>
  <rect x="16" y="16" width="568" height="368" fill="none" stroke="rgba(255,255,255,0.35)" stroke-width="1.5"/>
  <rect x="24" y="24" width="552" height="352" fill="none" stroke="rgba(255,255,255,0.18)" stroke-width="1"/>
  <g opacity="0.92"><rect x="60" y="79" width="46" height="120" fill="none" stroke="#f6b23d" stroke-width="2"/><line x1="106" y1="93" x2="198.92053203191608" y2="93" stroke="#f6b23d" stroke-width="1.4"/><circle cx="254.7264653351158" cy="93" r="4" fill="none" stroke="#f6b23d" stroke-width="1.4"/><line x1="106" y1="111" x2="414.8164291353896" y2="111" stroke="#f6b23d" stroke-width="1.4"/><circle cx="329.9346692394465" cy="111" r="4" fill="none" stroke="#f6b23d" stroke-width="1.4"/><line x1="106" y1="129" x2="306.8576852651313" y2="129" stroke="#f6b23d" stroke-width="1.4"/><circle cx="221.159105328843" cy="129" r="4" fill="none" stroke="#f6b23d" stroke-width="1.4"/><line x1="106" y1="147" x2="180.50048758741468" y2="147" stroke="#f6b23d" stroke-width="1.4"/><circle cx="210.57774670422077" cy="147" r="4" fill="none" stroke="#f6b23d" stroke-width="1.4"/><line x1="106" y1="165" x2="372.18027665279806" y2="165" stroke="#f6b23d" stroke-width="1.4"/><circle cx="347.81490477733314" cy="165" r="4" fill="none" stroke="#f6b23d" stroke-width="1.4"/><line x1="106" y1="183" x2="339.0378498379141" y2="183" stroke="#f6b23d" stroke-width="1.4"/><circle cx="390.99124542437494" cy="183" r="4" fill="none" stroke="#f6b23d" stroke-width="1.4"/><circle cx="301.00184884388" cy="252.36062542535365" r="9" fill="none" stroke="#f6b23d" stroke-width="1.4"/><line x1="296.00184884388" y1="252.36062542535365" x2="306.00184884388" y2="252.36062542535365" stroke="#f6b23d" stroke-width="1.4"/><circle cx="395.62567356508225" cy="345.7548445928842" r="9" fill="none" stroke="#f6b23d" stroke-width="1.4"/><line x1="390.62567356508225" y1="345.7548445928842" x2="400.62567356508225" y2="345.7548445928842" stroke="#f6b23d" stroke-width="1.4"/><circle cx="260.02507745753974" cy="369.7668355703354" r="9" fill="none" stroke="#f6b23d" stroke-width="1.4"/><line x1="255.02507745753974" y1="369.7668355703354" x2="265.02507745753974" y2="369.7668355703354" stroke="#f6b23d" stroke-width="1.4"/><circle cx="275.6283815065399" cy="352.8620215319097" r="9" fill="none" stroke="#f6b23d" stroke-width="1.4"/><line x1="270.6283815065399" y1="352.8620215319097" x2="280.6283815065399" y2="352.8620215319097" stroke="#f6b23d" stroke-width="1.4"/><circle cx="291.60651322919875" cy="348.6698370799422" r="9" fill="none" stroke="#f6b23d" stroke-width="1.4"/><line x1="286.60651322919875" y1="348.6698370799422" x2="296.60651322919875" y2="348.6698370799422" stroke="#f6b23d" stroke-width="1.4"/></g>
  <!-- title block -->
  <g>
    <rect x="360" y="330" width="216" height="46" fill="rgba(0,0,0,0.35)" stroke="rgba(255,255,255,0.35)" stroke-width="1"/>
    <line x1="360" y1="352" x2="576" y2="352" stroke="rgba(255,255,255,0.25)" stroke-width="0.8"/>
    <line x1="480" y1="330" x2="480" y2="376" stroke="rgba(255,255,255,0.25)" stroke-width="0.8"/>
    <text x="368" y="345" fill="#e6edf7" font-family="monospace" font-size="10" letter-spacing="1">DRAFTING STUDIO</text>
    <text x="368" y="368" fill="#f6b23d" font-family="monospace" font-size="11">E-302</text>
    <text x="488" y="345" fill="#aebfda" font-family="monospace" font-size="8">SCALE 1/8"=1'</text>
    <text x="488" y="368" fill="#aebfda" font-family="monospace" font-size="8">2D / AutoCAD</text>
  </g>
  <text x="32" y="46" fill="#dbe6f5" font-family="monospace" font-size="13" letter-spacing="0.5">COWORKING FLOOR — POWER &amp; DATA</text>
</svg>