<svg xmlns="http://www.w3.org/2000/svg" viewBox="0 0 600 400" width="600" height="400" role="img" aria-label="Strip Plaza — Site Electrical &amp; Photometrics — electrical drawing">
  <defs>
    <linearGradient id="bp" x1="0" y1="0" x2="1" y2="1">
      <stop offset="0" stop-color="#0a1f44"/>
      <stop offset="1" stop-color="#0c2450"/>
    </linearGradient>
    <pattern id="grid" width="24" height="24" patternUnits="userSpaceOnUse">
      <path d="M24 0H0V24" fill="none" stroke="rgba(255,255,255,0.06)" stroke-width="1"/>
    </pattern>
  </defs>
  <rect width="600" height="400" fill="url(#bp)"/>
  <rect width="600" height="400" fill="url(#grid)"/>
  <rect x="16" y="16" width="568" height="368" fill="none" stroke="rgba(255,255,255,0.35)" stroke-width="1.5"/>
  <rect x="24" y="24" width="552" height="352" fill="none" stroke="rgba(255,255,255,0.18)" stroke-width="1"/>
  <g opacity="0.92"><rect x="60" y="76" width="46" height="120" fill="none" stroke="#f6b23d" stroke-width="2"/><line x1="106" y1="90" x2="192.7002124628052" y2="90" stroke="#f6b23d" stroke-width="1.4"/><circle cx="386.13016771618277" cy="90" r="4" fill="none" stroke="#f6b23d" stroke-width="1.4"/><line x1="106" y1="108" x2="372.8514550253749" y2="108" stroke="#f6b23d" stroke-width="1.4"/><circle cx="375.17135547008365" cy="108" r="4" fill="none" stroke="#f6b23d" stroke-width="1.4"/><line x1="106" y1="126" x2="357.7690831152722" y2="126" stroke="#f6b23d" stroke-width="1.4"/><circle cx="240.09345408994704" cy="126" r="4" fill="none" stroke="#f6b23d" stroke-width="1.4"/><line x1="106" y1="144" x2="193.43114219605923" y2="144" stroke="#f6b23d" stroke-width="1.4"/><circle cx="241.59834682010114" cy="144" r="4" fill="none" stroke="#f6b23d" stroke-width="1.4"/><line x1="106" y1="162" x2="202.90114969015121" y2="162" stroke="#f6b23d" stroke-width="1.4"/><circle cx="356.82321516331285" cy="162" r="4" fill="none" stroke="#f6b23d" stroke-width="1.4"/><line x1="106" y1="180" x2="333.47496528178453" y2="180" stroke="#f6b23d" stroke-width="1.4"/><circle cx="281.142940283753" cy="180" r="4" fill="none" stroke="#f6b23d" stroke-width="1.4"/><circle cx="249.01383831631392" cy="339.98559550382197" r="9" fill="none" stroke="#f6b23d" stroke-width="1.4"/><line x1="244.01383831631392" y1="339.98559550382197" x2="254.01383831631392" y2="339.98559550382197" stroke="#f6b23d" stroke-width="1.4"/><circle cx="353.42476580291986" cy="338.2033845130354" r="9" fill="none" stroke="#f6b23d" stroke-width="1.4"/><line x1="348.42476580291986" y1="338.2033845130354" x2="358.42476580291986" y2="338.2033845130354" stroke="#f6b23d" stroke-width="1.4"/><circle cx="333.34527833387256" cy="320.5073056835681" r="9" fill="none" stroke="#f6b23d" stroke-width="1.4"/><line x1="328.34527833387256" y1="320.5073056835681" x2="338.34527833387256" y2="320.5073056835681" stroke="#f6b23d" stroke-width="1.4"/><circle cx="322.6001879479736" cy="366.2839089334011" r="9" fill="none" stroke="#f6b23d" stroke-width="1.4"/><line x1="317.6001879479736" y1="366.2839089334011" x2="327.6001879479736" y2="366.2839089334011" stroke="#f6b23d" stroke-width="1.4"/><circle cx="434.4353315467015" cy="267.0185174886137" r="9" fill="none" stroke="#f6b23d" stroke-width="1.4"/><line x1="429.4353315467015" y1="267.0185174886137" x2="439.4353315467015" y2="267.0185174886137" stroke="#f6b23d" stroke-width="1.4"/></g>
  <!-- title block -->
  <g>
    <rect x="360" y="330" width="216" height="46" fill="rgba(0,0,0,0.35)" stroke="rgba(255,255,255,0.35)" stroke-width="1"/>
    <line x1="360" y1="352" x2="576" y2="352" stroke="rgba(255,255,255,0.25)" stroke-width="0.8"/>
    <line x1="480" y1="330" x2="480" y2="376" stroke="rgba(255,255,255,0.25)" stroke-width="0.8"/>
    <text x="368" y="345" fill="#e6edf7" font-family="monospace" font-size="10" letter-spacing="1">DRAFTING STUDIO</text>
    <text x="368" y="368" fill="#f6b23d" font-family="monospace" font-size="11">ES-101</text>
    <text x="488" y="345" fill="#aebfda" font-family="monospace" font-size="8">SCALE 1/8"=1'</text>
    <text x="488" y="368" fill="#aebfda" font-family="monospace" font-size="8">2D / AutoCAD</text>
  </g>
  <text x="32" y="46" fill="#dbe6f5" font-family="monospace" font-size="13" letter-spacing="0.5">STRIP PLAZA — SITE ELECTRICAL &amp; PHOTOMETRICS —</text>
</svg>