<svg xmlns="http://www.w3.org/2000/svg" viewBox="0 0 600 400" width="600" height="400" role="img" aria-label="Power Upgrade drawing">
  <defs>
    <linearGradient id="bp" x1="0" y1="0" x2="1" y2="1">
      <stop offset="0" stop-color="#0a1f44"/>
      <stop offset="1" stop-color="#0c2450"/>
    </linearGradient>
    <pattern id="grid" width="24" height="24" patternUnits="userSpaceOnUse">
      <path d="M24 0H0V24" fill="none" stroke="rgba(255,255,255,0.06)" stroke-width="1"/>
    </pattern>
  </defs>
  <rect width="600" height="400" fill="url(#bp)"/>
  <rect width="600" height="400" fill="url(#grid)"/>
  <rect x="16" y="16" width="568" height="368" fill="none" stroke="rgba(255,255,255,0.35)" stroke-width="1.5"/>
  <rect x="24" y="24" width="552" height="352" fill="none" stroke="rgba(255,255,255,0.18)" stroke-width="1"/>
  <g opacity="0.92"><rect x="60" y="81" width="46" height="120" fill="none" stroke="#f6b23d" stroke-width="2"/><line x1="106" y1="95" x2="345.00233865808696" y2="95" stroke="#f6b23d" stroke-width="1.4"/><circle cx="371.1604974931106" cy="95" r="4" fill="none" stroke="#f6b23d" stroke-width="1.4"/><line x1="106" y1="113" x2="407.9865753930062" y2="113" stroke="#f6b23d" stroke-width="1.4"/><circle cx="321.48105300962925" cy="113" r="4" fill="none" stroke="#f6b23d" stroke-width="1.4"/><line x1="106" y1="131" x2="238.9552307408303" y2="131" stroke="#f6b23d" stroke-width="1.4"/><circle cx="182.7944256691262" cy="131" r="4" fill="none" stroke="#f6b23d" stroke-width="1.4"/><line x1="106" y1="149" x2="361.1148566333577" y2="149" stroke="#f6b23d" stroke-width="1.4"/><circle cx="270.9181700460613" cy="149" r="4" fill="none" stroke="#f6b23d" stroke-width="1.4"/><line x1="106" y1="167" x2="258.14373697619885" y2="167" stroke="#f6b23d" stroke-width="1.4"/><circle cx="319.9443896114826" cy="167" r="4" fill="none" stroke="#f6b23d" stroke-width="1.4"/><line x1="106" y1="185" x2="418.00498699303716" y2="185" stroke="#f6b23d" stroke-width="1.4"/><circle cx="349.43482359405607" cy="185" r="4" fill="none" stroke="#f6b23d" stroke-width="1.4"/><circle cx="456.28715756349266" cy="287.6671061757952" r="9" fill="none" stroke="#f6b23d" stroke-width="1.4"/><line x1="451.28715756349266" y1="287.6671061757952" x2="461.28715756349266" y2="287.6671061757952" stroke="#f6b23d" stroke-width="1.4"/><circle cx="273.98122661281377" cy="368.01272806711495" r="9" fill="none" stroke="#f6b23d" stroke-width="1.4"/><line x1="268.98122661281377" y1="368.01272806711495" x2="278.98122661281377" y2="368.01272806711495" stroke="#f6b23d" stroke-width="1.4"/><circle cx="290.5415993463248" cy="261.2941900640726" r="9" fill="none" stroke="#f6b23d" stroke-width="1.4"/><line x1="285.5415993463248" y1="261.2941900640726" x2="295.5415993463248" y2="261.2941900640726" stroke="#f6b23d" stroke-width="1.4"/><circle cx="233.75724442768842" cy="352.636638302356" r="9" fill="none" stroke="#f6b23d" stroke-width="1.4"/><line x1="228.75724442768842" y1="352.636638302356" x2="238.75724442768842" y2="352.636638302356" stroke="#f6b23d" stroke-width="1.4"/><circle cx="352.85088748671114" cy="340.3814126364887" r="9" fill="none" stroke="#f6b23d" stroke-width="1.4"/><line x1="347.85088748671114" y1="340.3814126364887" x2="357.85088748671114" y2="340.3814126364887" stroke="#f6b23d" stroke-width="1.4"/></g>
  <!-- title block -->
  <g>
    <rect x="360" y="330" width="216" height="46" fill="rgba(0,0,0,0.35)" stroke="rgba(255,255,255,0.35)" stroke-width="1"/>
    <line x1="360" y1="352" x2="576" y2="352" stroke="rgba(255,255,255,0.25)" stroke-width="0.8"/>
    <line x1="480" y1="330" x2="480" y2="376" stroke="rgba(255,255,255,0.25)" stroke-width="0.8"/>
    <text x="368" y="345" fill="#e6edf7" font-family="monospace" font-size="10" letter-spacing="1">DRAFTING STUDIO</text>
    <text x="368" y="368" fill="#f6b23d" font-family="monospace" font-size="11">POWER-</text>
    <text x="488" y="345" fill="#aebfda" font-family="monospace" font-size="8">SCALE 1/8"=1'</text>
    <text x="488" y="368" fill="#aebfda" font-family="monospace" font-size="8">2D / AutoCAD</text>
  </g>
  <text x="32" y="46" fill="#dbe6f5" font-family="monospace" font-size="13" letter-spacing="0.5">POWER UPGRADE</text>
</svg>